<svg xmlns="http://www.w3.org/2000/svg" viewBox="0 0 100 100">
  <rect x="2" y="2" width="96" height="96" rx="22" fill="#f4ecdb"/>
  <path d="M50 8 A42 42 0 0 0 50 92 A21 21 0 0 1 50 50 A21 21 0 0 0 50 8 Z" fill="#f4ecdb"/>
  <path d="M50 8 A42 42 0 0 1 50 92 A21 21 0 0 0 50 50 A21 21 0 0 1 50 8 Z" fill="#7d9a7a"/>
  <g fill="none" stroke="#5e7a5b" stroke-width="0.9" stroke-linejoin="round">
    <path d="M40 78 Q 38 62 44 50 Q 50 38 52 22"/>
  </g>
  <g fill="#a8c0a0" stroke="#5e7a5b" stroke-width="0.8">
    <path d="M40 76 Q 33 74 31 68 Q 38 67 42 72 Z"/>
    <path d="M40 60 Q 32 56 32 48 Q 40 49 44 56 Z"/>
    <path d="M52 40 Q 62 36 70 40 Q 64 48 54 48 Z"/>
    <path d="M62 32 Q 70 28 78 32 Q 72 40 62 40 Z"/>
  </g>
  <circle cx="52" cy="30" r="10" fill="#7d9a7a" stroke="#f4ecdb" stroke-width="1.2"/>
  <path d="M52 35 C 49 32 46.5 30.2 46.5 27.8 C 46.5 26.2 47.8 25 49.4 25 C 50.5 25 51.5 25.6 52 26.5 C 52.5 25.6 53.5 25 54.6 25 C 56.2 25 57.5 26.2 57.5 27.8 C 57.5 30.2 55 32 52 35 Z" fill="#f4d9a4"/>
  <circle cx="58" cy="72" r="11" fill="#f4ecdb" stroke="#cdbf9f" stroke-width="0.8"/>
  <g stroke="#7d9a7a" stroke-width="1" stroke-linecap="round" fill="none">
    <rect x="52" y="68" width="12" height="9" rx="1.2"/>
    <path d="M54.5 67v2 M61.5 67v2 M52 71h12"/>
  </g>
  <path d="M58 76 C 56.6 74.7 55.4 73.9 55.4 72.8 C 55.4 72.1 55.95 71.6 56.65 71.6 C 57.15 71.6 57.6 71.85 58 72.25 C 58.4 71.85 58.85 71.6 59.35 71.6 C 60.05 71.6 60.6 72.1 60.6 72.8 C 60.6 73.9 59.4 74.7 58 76 Z" fill="#f4d9a4"/>
</svg>