<svg xmlns="http://www.w3.org/2000/svg" viewBox="0 0 48 48" fill="none" stroke-linecap="round" stroke-linejoin="round" stroke-width="1.6">
  <defs>
    <linearGradient id="g" x1="6" y1="6" x2="42" y2="42" gradientUnits="userSpaceOnUse">
      <stop offset="0%" stop-color="#e8a3a3"/>
      <stop offset="55%" stop-color="#c98ab8"/>
      <stop offset="100%" stop-color="#8aa9d6"/>
    </linearGradient>
  </defs>
  <g stroke="url(#g)">
    <circle cx="24" cy="24" r="21"/>
    <path d="M24 3 C 14 12 34 24 24 45"/>
    <rect x="9" y="14" width="13" height="11" rx="1.6"/>
    <path d="M12 13v2.4M19 13v2.4M9 17.4h13"/>
    <path d="M14.4 20.4c0-.7.55-1.2 1.15-1.2.42 0 .78.22 1 .55.22-.33.58-.55 1-.55.6 0 1.15.5 1.15 1.2 0 1.05-2.15 2.3-2.15 2.3s-2.15-1.25-2.15-2.3z"/>
    <path d="M11 31 C 13 28 16 27 19 27"/>
    <path d="M12.4 29.6c-.9-.2-1.6-.9-1.8-1.8.9.2 1.6.9 1.8 1.8z"/>
    <path d="M14.6 28.4c-.7-.5-1-1.4-.8-2.3.7.5 1 1.4.8 2.3z"/>
    <path d="M17 27.6c-.4-.7-.3-1.7.3-2.4.4.7.3 1.7-.3 2.4z"/>
    <circle cx="33.5" cy="22" r="2.4"/>
    <path d="M27.5 33 C 27.5 28 30.2 25.4 33.5 25.4 C 36.8 25.4 39.5 28 39.5 32"/>
    <path d="M29.6 33 C 29.8 30.4 31.6 28.8 33.7 28.8"/>
    <path d="M31.6 32.4c0-1 .8-1.7 1.65-1.7.6 0 1.1.32 1.4.8.3-.48.8-.8 1.4-.8.85 0 1.65.7 1.65 1.7 0 1.5-3.05 3.3-3.05 3.3s-3.05-1.8-3.05-3.3z"/>
  </g>
</svg>